<?xml version="1.0" encoding="UTF-8"?>
<svg id="Elements" width="430" height="46" data-name="Elements" xmlns="http://www.w3.org/2000/svg" viewBox="0 0 430 46">
  <defs>
    <style>
      .cls-1, .cls-2 {
        fill: #fff;
      }

      .cls-1, .cls-3 {
        opacity: 0.6;
      }
    </style>
  </defs>
  <title>envato-elements</title>
  <path class="cls-1" d="M27.56,8.6c-1.1-.6-4.2-0.2-7.9.9-6.5,4.4-12,11-12.4,21.5-0.1.3-.7,0-0.8-0.1-1.8-3.4-2.5-6.9-1-12,0.3-.5-0.6-1-0.8-0.9a20.55,20.55,0,0,0-2.6,3.3,16,16,0,1,0,28,15.6C35.06,27.9,30.46,10.2,27.56,8.6Z"/>
  <g>
    <path class="cls-2" d="M55.16,12.8c-9.2,0-15.8,6.8-15.8,16.2S46,45.1,55.46,45.1a15.29,15.29,0,0,0,11.6-4.6,3.44,3.44,0,0,0,1-2.3,2.55,2.55,0,0,0-2.7-2.6,3,3,0,0,0-2.2,1,10.63,10.63,0,0,1-7.7,3.2,9.57,9.57,0,0,1-9.7-8.9h20.7c2.2,0,3.3-1.1,3.3-3.2a15.56,15.56,0,0,0-.1-2C68.66,17.6,63.16,12.8,55.16,12.8Zm0,5.1c5,0,8.2,3.2,8.3,8.3H45.76A9.34,9.34,0,0,1,55.16,17.9Z"/>
    <path class="cls-2" d="M89.66,12.8c-4.2,0-8.3,2.4-9.9,5.7V16.4c0-3.2-2.5-3.3-3-3.3-1.5,0-3,.9-3,3.3V41.2c0,3.3,2.6,3.5,3.1,3.5a3.16,3.16,0,0,0,3.2-3.5V27.9c0-5.8,3.3-9.8,8-9.8,4.5,0,6.8,3,6.8,9.1v14c0,3.3,2.6,3.5,3.2,3.5s3.1-.2,3.1-3.5v-16C101.06,19.3,98.06,12.8,89.66,12.8Z"/>
    <path class="cls-2" d="M129.56,13.2c-1.5,0-2.5.8-3.1,2.5l-8.6,21.7-8.6-21.7c-0.7-1.7-1.7-2.5-3.2-2.5a3.19,3.19,0,0,0-3.2,3,3.86,3.86,0,0,0,.4,1.8l9.9,23.4c1.2,2.8,3.1,3.4,4.5,3.4s3.4-.6,4.5-3.4l10-23.5a5.44,5.44,0,0,0,.4-1.7A2.78,2.78,0,0,0,129.56,13.2Z"/>
    <path class="cls-2" d="M147.86,12.8a17.76,17.76,0,0,0-10.6,3.2,3.11,3.11,0,0,0-1.4,2.5,2.46,2.46,0,0,0,2.4,2.5,3,3,0,0,0,1.9-.7,12.23,12.23,0,0,1,7.1-2.3c4.7,0,7.3,2.4,7.3,6.5v0.7c-10.5,0-21.1,1.3-21.1,10.4,0,6.5,5.6,9.5,11.1,9.5,4.4,0,7.9-1.7,10.2-5.1v1.6a2.88,2.88,0,0,0,3,3.2c0.3,0,2.8-.1,2.8-3.2V24.9C160.66,17.3,156,12.8,147.86,12.8Zm5.5,17h1.3v1.5c0,5.3-3.4,8.7-8.6,8.7-1.4,0-6.1-.3-6.1-4.6C140,30.4,147.56,29.8,153.36,29.8Z"/>
    <path class="cls-2" d="M177.06,18.9c2.8,0,2.9-2.1,2.9-2.6,0-1.3-.8-2.6-2.9-2.6h-5.7V7.9c0-2.6-1.7-3.5-3.1-3.5-0.5,0-3.1.2-3.1,3.5V35.1c0,6.3,3.1,9.6,9,9.6a11.47,11.47,0,0,0,4-.7,2.89,2.89,0,0,0,1.7-2.5,2.42,2.42,0,0,0-2.5-2.5,5.16,5.16,0,0,0-1.1.2,6.88,6.88,0,0,1-1.3.2c-2.4,0-3.5-1.6-3.5-4.9V18.9h5.6Z"/>
    <path class="cls-2" d="M198,12.8c-9.5,0-16.4,6.8-16.4,16.1a16.07,16.07,0,0,0,4.7,11.6A16.82,16.82,0,0,0,198,45.1c9.4,0,16.5-7,16.5-16.2S207.46,12.8,198,12.8Zm0,26.9c-6.5,0-10-5.5-10-10.8,0-7.4,5.2-10.8,10-10.8s10,3.4,10,10.8S202.76,39.7,198,39.7Z"/>
  </g>
  <g class="cls-3">
    <path class="cls-2" d="M235.56,46a12.56,12.56,0,0,1-7.3-2.2,14.23,14.23,0,0,1-5.2-5.9,18.34,18.34,0,0,1-1.9-8.2V28.4a18.6,18.6,0,0,1,1.8-8.2,14.52,14.52,0,0,1,5-5.9,12.5,12.5,0,0,1,7-2.1,11.42,11.42,0,0,1,9.1,4,15.12,15.12,0,0,1,3.5,10.3v1.6a0.9,0.9,0,0,1-.9.9h-22.1v0.7a14.43,14.43,0,0,0,1.5,6.5,11.27,11.27,0,0,0,4,4.6,9.91,9.91,0,0,0,5.5,1.7,11.91,11.91,0,0,0,4.9-.9,9.55,9.55,0,0,0,3.5-2.9,1,1,0,0,1,1.3-.2l1.1,0.8a1,1,0,0,1,.2,1.3C244.06,44.2,240.36,46,235.56,46Zm-10.7-20.4h19.4a13.06,13.06,0,0,0-1.2-4.8,9.43,9.43,0,0,0-3.3-3.8,8.32,8.32,0,0,0-4.7-1.3,9.17,9.17,0,0,0-6.9,3A12.11,12.11,0,0,0,224.86,25.6Z"/>
    <path class="cls-2" d="M253.16,45.4h-1.5a0.9,0.9,0,0,1-.9-0.9V0.9a0.9,0.9,0,0,1,.9-0.9h1.5a0.9,0.9,0,0,1,.9.9V44.6A0.88,0.88,0,0,1,253.16,45.4Z"/>
    <path class="cls-2" d="M271.66,46a12.56,12.56,0,0,1-7.3-2.2,14.23,14.23,0,0,1-5.2-5.9,18.34,18.34,0,0,1-1.9-8.2V28.4a18.6,18.6,0,0,1,1.8-8.2,14.52,14.52,0,0,1,5-5.9,12.5,12.5,0,0,1,7-2.1,11.42,11.42,0,0,1,9.1,4,15.12,15.12,0,0,1,3.5,10.3v1.6a0.9,0.9,0,0,1-.9.9h-22.1v0.7a14.43,14.43,0,0,0,1.5,6.5,11.27,11.27,0,0,0,4,4.6,9.91,9.91,0,0,0,5.5,1.7,12.25,12.25,0,0,0,4.9-.9,9.55,9.55,0,0,0,3.5-2.9,1,1,0,0,1,1.3-.2l1.1,0.8a1,1,0,0,1,.2,1.3C280.16,44.2,276.46,46,271.66,46Zm-10.8-20.4h19.4a13.06,13.06,0,0,0-1.2-4.8,9.43,9.43,0,0,0-3.3-3.8,8.54,8.54,0,0,0-4.7-1.3,9.17,9.17,0,0,0-6.9,3A13.52,13.52,0,0,0,260.86,25.6Z"/>
    <path class="cls-2" d="M330.16,45.4h-1.5a0.9,0.9,0,0,1-.9-0.9V24.6q0-4.65-1.8-6.9c-1.2-1.4-3-2.1-5.6-2a9.73,9.73,0,0,0-8.1,4.1,8.83,8.83,0,0,0-1.9,4.4V44.6a0.9,0.9,0,0,1-.9.9H308a0.9,0.9,0,0,1-.9-0.9V23.9q0-4.2-1.8-6.3c-1.1-1.3-3.1-1.9-5.7-1.9a8.71,8.71,0,0,0-7.5,4.1,13.81,13.81,0,0,0-2.4,5.4V44.5a0.9,0.9,0,0,1-.9.9h-1.6a0.9,0.9,0,0,1-.9-0.9V13.7a0.9,0.9,0,0,1,.9-0.9h1.6a0.9,0.9,0,0,1,.9.9v3.7a10.37,10.37,0,0,1,3-2.9,11.65,11.65,0,0,1,7-2.2,11.48,11.48,0,0,1,6.9,1.9,7.76,7.76,0,0,1,2.9,3.9,12.72,12.72,0,0,1,3.7-3.6,13.57,13.57,0,0,1,7.4-2.1c3.6,0,6.3,1.1,8.1,3.1s2.7,5.1,2.7,9.1V44.7A1.64,1.64,0,0,1,330.16,45.4Z"/>
    <path class="cls-2" d="M348,46a12.56,12.56,0,0,1-7.3-2.2,14.23,14.23,0,0,1-5.2-5.9,18.34,18.34,0,0,1-1.9-8.2V28.4a18.6,18.6,0,0,1,1.8-8.2,14.52,14.52,0,0,1,5-5.9,12.5,12.5,0,0,1,7-2.1,11.42,11.42,0,0,1,9.1,4A15.12,15.12,0,0,1,360,26.5v1.6a0.9,0.9,0,0,1-.9.9H337v0.7a14.43,14.43,0,0,0,1.5,6.5,11.27,11.27,0,0,0,4,4.6,9.91,9.91,0,0,0,5.5,1.7,11.91,11.91,0,0,0,4.9-.9,9.55,9.55,0,0,0,3.5-2.9,1,1,0,0,1,1.3-.2l1.1,0.8a1,1,0,0,1,.2,1.3C356.46,44.2,352.76,46,348,46Zm-10.8-20.4h19.4a13.06,13.06,0,0,0-1.2-4.8,9.43,9.43,0,0,0-3.3-3.8,8.54,8.54,0,0,0-4.7-1.3,9.17,9.17,0,0,0-6.9,3A13.52,13.52,0,0,0,337.16,25.6Z"/>
    <path class="cls-2" d="M385.86,45.4h-1.5a0.9,0.9,0,0,1-.9-0.9V24.4c0-3-.6-5.3-1.8-6.7s-3-2-5.6-2a8.17,8.17,0,0,0-6.2,2.6,12.88,12.88,0,0,0-3.6,6.7V44.6a0.9,0.9,0,0,1-.9.9h-1.5a0.9,0.9,0,0,1-.9-0.9V13.8a0.9,0.9,0,0,1,.9-0.9h1.5a0.9,0.9,0,0,1,.9.9v3.6a13.29,13.29,0,0,1,2.9-2.9,11.86,11.86,0,0,1,7-2.2c3.6,0,6.3,1.1,8.1,3.1s2.6,5.1,2.7,9.1V44.6A1.33,1.33,0,0,1,385.86,45.4Z"/>
    <path class="cls-2" d="M401,46c-2.5,0-4.4-.7-5.5-2.2s-1.7-3.5-1.7-6.4V16.3h-4.7a0.9,0.9,0,0,1-.9-0.9V13.9a0.9,0.9,0,0,1,.9-0.9h4.7V5.6a0.9,0.9,0,0,1,.9-0.9h1.6a0.9,0.9,0,0,1,.9.9V13h6a0.9,0.9,0,0,1,.9.9v1.5a0.9,0.9,0,0,1-.9.9h-6V37.2a7.87,7.87,0,0,0,.9,4.3c0.8,1.2,2.6,1.3,5.7.9a1,1,0,0,1,1.1.8l0.3,1.4a1,1,0,0,1-.6,1.1A15.4,15.4,0,0,1,401,46Z"/>
    <path class="cls-2" d="M418.36,46a15.35,15.35,0,0,1-8.9-2.5,8,8,0,0,1-3.6-6.8,0.9,0.9,0,0,1,.9-0.9h1.5a0.9,0.9,0,0,1,.9.9,5.18,5.18,0,0,0,2.4,4.3,11.52,11.52,0,0,0,6.6,1.6,10.25,10.25,0,0,0,6.1-1.7,4.71,4.71,0,0,0,2.2-3.9c0-3.3-2.9-5.4-8.8-6.7-4-.9-6.8-1.9-8.4-3.3a7.64,7.64,0,0,1-2.6-6,7.59,7.59,0,0,1,3.2-6.3,12.89,12.89,0,0,1,8-2.4,13.76,13.76,0,0,1,8.6,2.6,8.86,8.86,0,0,1,3.4,7.1,0.9,0.9,0,0,1-.9.9h-1.6a0.9,0.9,0,0,1-.9-0.9,5.16,5.16,0,0,0-2.3-4.4,10.17,10.17,0,0,0-6.2-1.9,9.1,9.1,0,0,0-5.8,1.6,4.52,4.52,0,0,0-2,3.7,4.15,4.15,0,0,0,.7,2.7,5.58,5.58,0,0,0,2.5,1.8,30.81,30.81,0,0,0,5.6,1.8,24.12,24.12,0,0,1,6.3,2.2,9.44,9.44,0,0,1,3.6,3.2,7.92,7.92,0,0,1,1.1,4.5,7.69,7.69,0,0,1-3.4,6.6A14.23,14.23,0,0,1,418.36,46Z"/>
  </g>
</svg>
